<svg width="80" height="80" viewBox="0 0 80 80" xmlns="http://www.w3.org/2000/svg">
  <defs>
    <linearGradient id="teamGradient" x1="0%" y1="0%" x2="100%" y2="100%">
      <stop offset="0%" style="stop-color:#ff9800;stop-opacity:1" />
      <stop offset="100%" style="stop-color:#f57c00;stop-opacity:1" />
    </linearGradient>
  </defs>
  
  <!-- Background circle -->
  <circle cx="40" cy="40" r="38" fill="url(#teamGradient)"/>
  
  <!-- Team/People icon -->
  <g fill="#ffffff">
    <!-- Person 1 -->
    <circle cx="30" cy="28" r="6"/>
    <path d="M20 50 Q20 40 30 40 Q40 40 40 50 L20 50"/>
    
    <!-- Person 2 -->
    <circle cx="50" cy="28" r="6"/>
    <path d="M40 50 Q40 40 50 40 Q60 40 60 50 L40 50"/>
    
    <!-- Person 3 (slightly behind) -->
    <circle cx="40" cy="35" r="5"/>
    <path d="M32 55 Q32 48 40 48 Q48 48 48 55 L32 55"/>
  </g>
  
  <!-- Connection lines -->
  <g stroke="#ffffff" stroke-width="1" opacity="0.6">
    <line x1="30" y1="34" x2="40" y2="40"/>
    <line x1="50" y1="34" x2="40" y2="40"/>
  </g>
</svg>