<?xml version="1.0" encoding="UTF-8"?>
<svg width="160" height="35" viewBox="0 0 160 35" xmlns="http://www.w3.org/2000/svg">
  <defs>
    <linearGradient id="bgGradient2" x1="0%" y1="0%" x2="100%" y2="100%">
      <stop offset="0%" style="stop-color:#f8f9fa;stop-opacity:1" />
      <stop offset="100%" style="stop-color:#e9ecef;stop-opacity:1" />
    </linearGradient>
    <filter id="shadow2" x="-20%" y="-20%" width="140%" height="140%">
      <feDropShadow dx="2" dy="2" stdDeviation="2" flood-color="#000" flood-opacity="0.1"/>
    </filter>
  </defs>
  
  <!-- Background rounded rectangle -->
  <rect x="2" y="2" width="156" height="31" rx="8" ry="8" 
        fill="url(#bgGradient2)" stroke="#7BB32E" stroke-width="2" filter="url(#shadow2)"/>
  
  <!-- Phone number text as paths for true vector graphics -->
  <g fill="#333" font-family="Courier New, monospace" font-size="14" font-weight="bold">
    <!-- + symbol -->
    <rect x="15" y="14" width="2" height="8" rx="1"/>
    <rect x="12" y="17" width="8" height="2" rx="1"/>
    
    <!-- 8 -->
    <circle cx="28" cy="18" r="4" fill="none" stroke="#333" stroke-width="2"/>
    <circle cx="28" cy="18" r="2" fill="none" stroke="#333" stroke-width="1"/>
    
    <!-- 6 -->
    <path d="M38,14 Q42,14 42,18 Q42,22 38,22 Q34,22 34,18 L34,14 Q34,10 38,10 Q40,10 40,12" 
          fill="none" stroke="#333" stroke-width="2" stroke-linecap="round"/>
    
    <!-- Space -->
    
    <!-- 1 -->
    <rect x="52" y="10" width="2" height="12" rx="1"/>
    <path d="M50,12 L52,10" stroke="#333" stroke-width="2" stroke-linecap="round"/>
    
    <!-- 8 -->
    <circle cx="62" cy="16" r="3" fill="none" stroke="#333" stroke-width="1.5"/>
    <circle cx="62" cy="14" r="2" fill="none" stroke="#333" stroke-width="1"/>
    <circle cx="62" cy="18" r="2" fill="none" stroke="#333" stroke-width="1"/>
    
    <!-- 6 -->
    <path d="M72,14 Q76,14 76,18 Q76,22 72,22 Q68,22 68,18 L68,14 Q68,10 72,10 Q74,10 74,12" 
          fill="none" stroke="#333" stroke-width="2" stroke-linecap="round"/>
    
    <!-- 1 -->
    <rect x="82" y="10" width="2" height="12" rx="1"/>
    <path d="M80,12 L82,10" stroke="#333" stroke-width="2" stroke-linecap="round"/>
    
    <!-- 2 -->
    <path d="M88,12 Q90,10 92,12 Q92,14 88,18 L92,22 L88,22" 
          fill="none" stroke="#333" stroke-width="2" stroke-linecap="round"/>
    
    <!-- 5 -->
    <path d="M98,10 L104,10 M98,10 L98,16 L102,16 Q104,16 104,18 Q104,20 102,20 L98,20" 
          fill="none" stroke="#333" stroke-width="2" stroke-linecap="round"/>
    
    <!-- 1 -->
    <rect x="110" y="10" width="2" height="12" rx="1"/>
    <path d="M108,12 L110,10" stroke="#333" stroke-width="2" stroke-linecap="round"/>
    
    <!-- 8 -->
    <circle cx="120" cy="16" r="3" fill="none" stroke="#333" stroke-width="1.5"/>
    <circle cx="120" cy="14" r="2" fill="none" stroke="#333" stroke-width="1"/>
    <circle cx="120" cy="18" r="2" fill="none" stroke="#333" stroke-width="1"/>
    
    <!-- 2 -->
    <path d="M128,12 Q130,10 132,12 Q132,14 128,18 L132,22 L128,22" 
          fill="none" stroke="#333" stroke-width="2" stroke-linecap="round"/>
    
    <!-- 7 -->
    <path d="M138,10 L144,10 L140,22" fill="none" stroke="#333" stroke-width="2" stroke-linecap="round"/>
    
    <!-- 1 -->
    <rect x="148" y="10" width="2" height="12" rx="1"/>
    <path d="M146,12 L148,10" stroke="#333" stroke-width="2" stroke-linecap="round"/>
  </g>
</svg>