<?xml version="1.0" encoding="UTF-8"?>
<svg width="160" height="35" viewBox="0 0 160 35" xmlns="http://www.w3.org/2000/svg">
  <defs>
    <linearGradient id="bgGradient2" x1="0%" y1="0%" x2="100%" y2="100%">
      <stop offset="0%" style="stop-color:#f8f9fa;stop-opacity:1" />
      <stop offset="100%" style="stop-color:#e9ecef;stop-opacity:1" />
    </linearGradient>
    <filter id="shadow2" x="-20%" y="-20%" width="140%" height="140%">
      <feDropShadow dx="2" dy="2" stdDeviation="2" flood-color="#000" flood-opacity="0.1"/>
    </filter>
  </defs>
  
  <!-- Background rounded rectangle -->
  <rect x="2" y="2" width="156" height="31" rx="8" ry="8" 
        fill="url(#bgGradient2)" stroke="#7BB32E" stroke-width="2" filter="url(#shadow2)"/>
  
  <!-- Clear, distinguishable phone number: +86 18612518271 -->
  <g fill="#1a1a1a" stroke="#1a1a1a" stroke-width="0.3" transform="translate(15, 11)">
    <!-- + -->
    <rect x="0" y="5" width="2" height="8" rx="0.3"/>
    <rect x="-3" y="8" width="8" height="2" rx="0.3"/>
    
    <!-- 8 (distinctive two circles) -->
    <rect x="12" y="3" width="8" height="12" rx="4" fill="none" stroke-width="2"/>
    <rect x="14" y="5" width="4" height="3" rx="2" fill="none" stroke-width="1.5"/>
    <rect x="14" y="10" width="4" height="3" rx="2" fill="none" stroke-width="1.5"/>
    
    <!-- 6 (clear spiral design) -->
    <rect x="24" y="3" width="8" height="12" rx="4" fill="none" stroke-width="2"/>
    <rect x="26" y="9" width="4" height="4" rx="2" fill="none" stroke-width="1.5"/>
    <path d="M26,6 L30,6" stroke-width="2"/>
    
    <!-- Space -->
    
    <!-- 1 (clear vertical line with base) -->
    <rect x="38" y="3" width="2.5" height="12" rx="0.5"/>
    <path d="M36,5 L38,3" stroke-width="2" stroke-linecap="round"/>
    <rect x="36" y="13.5" width="6.5" height="1.5" rx="0.3"/>
    
    <!-- 8 (distinctive two circles) -->
    <rect x="48" y="3" width="8" height="12" rx="4" fill="none" stroke-width="2"/>
    <rect x="50" y="5" width="4" height="3" rx="2" fill="none" stroke-width="1.5"/>
    <rect x="50" y="10" width="4" height="3" rx="2" fill="none" stroke-width="1.5"/>
    
    <!-- 6 (clear spiral design) -->
    <rect x="60" y="3" width="8" height="12" rx="4" fill="none" stroke-width="2"/>
    <rect x="62" y="9" width="4" height="4" rx="2" fill="none" stroke-width="1.5"/>
    <path d="M62,6 L66,6" stroke-width="2"/>
    
    <!-- 1 (clear vertical line with base) -->
    <rect x="74" y="3" width="2.5" height="12" rx="0.5"/>
    <path d="M72,5 L74,3" stroke-width="2" stroke-linecap="round"/>
    <rect x="72" y="13.5" width="6.5" height="1.5" rx="0.3"/>
    
    <!-- 2 (clear Z-shape) -->
    <path d="M84,5 Q86,3 88,5 Q86,7 84,9 L88,13 L84,15 L88,15" stroke-width="2" fill="none" stroke-linecap="round"/>
    <rect x="84" y="3" width="6" height="2" rx="1"/>
    
    <!-- 5 (clear F-shape) -->
    <rect x="96" y="3" width="8" height="2" rx="0.5"/>
    <rect x="96" y="3" width="2" height="6" rx="0.5"/>
    <rect x="96" y="7" width="6" height="2" rx="0.5"/>
    <rect x="102" y="7" width="2" height="8" rx="1"/>
    <rect x="96" y="13" width="8" height="2" rx="1"/>
    
    <!-- 1 (clear vertical line with base) -->
    <rect x="110" y="3" width="2.5" height="12" rx="0.5"/>
    <path d="M108,5 L110,3" stroke-width="2" stroke-linecap="round"/>
    <rect x="108" y="13.5" width="6.5" height="1.5" rx="0.3"/>
    
    <!-- 8 (distinctive two circles) -->
    <rect x="120" y="3" width="8" height="12" rx="4" fill="none" stroke-width="2"/>
    <rect x="122" y="5" width="4" height="3" rx="2" fill="none" stroke-width="1.5"/>
    <rect x="122" y="10" width="4" height="3" rx="2" fill="none" stroke-width="1.5"/>
    
    <!-- 2 (clear Z-shape) -->
    <path d="M134,5 Q136,3 138,5 Q136,7 134,9 L138,13 L134,15 L138,15" stroke-width="2" fill="none" stroke-linecap="round"/>
    <rect x="134" y="3" width="6" height="2" rx="1"/>
    
    <!-- 7 (clear angle) -->
    <rect x="146" y="3" width="8" height="2" rx="0.5"/>
    <path d="M150,5 L148,15" stroke-width="2.5" stroke-linecap="round"/>
    
    <!-- 1 (clear vertical line with base) -->
    <rect x="160" y="3" width="2.5" height="12" rx="0.5"/>
    <path d="M158,5 L160,3" stroke-width="2" stroke-linecap="round"/>
    <rect x="158" y="13.5" width="6.5" height="1.5" rx="0.3"/>
  </g>
</svg>