<?xml version="1.0" encoding="UTF-8"?>
<svg width="160" height="35" viewBox="0 0 160 35" xmlns="http://www.w3.org/2000/svg">
  <defs>
    <linearGradient id="bgGradient" x1="0%" y1="0%" x2="100%" y2="100%">
      <stop offset="0%" style="stop-color:#f8f9fa;stop-opacity:1" />
      <stop offset="100%" style="stop-color:#e9ecef;stop-opacity:1" />
    </linearGradient>
    <filter id="shadow" x="-20%" y="-20%" width="140%" height="140%">
      <feDropShadow dx="2" dy="2" stdDeviation="2" flood-color="#000" flood-opacity="0.1"/>
    </filter>
  </defs>
  
  <!-- Background rounded rectangle -->
  <rect x="2" y="2" width="156" height="31" rx="8" ry="8" 
        fill="url(#bgGradient)" stroke="#0056b3" stroke-width="2" filter="url(#shadow)"/>
  
  <!-- Clear, distinguishable phone number: +86 15013702378 -->
  <g fill="#1a1a1a" stroke="#1a1a1a" stroke-width="0.3" transform="translate(15, 11)">
    <!-- + -->
    <rect x="0" y="5" width="2" height="8" rx="0.3"/>
    <rect x="-3" y="8" width="8" height="2" rx="0.3"/>
    
    <!-- 8 (distinctive two circles) -->
    <rect x="12" y="3" width="8" height="12" rx="4" fill="none" stroke-width="2"/>
    <rect x="14" y="5" width="4" height="3" rx="2" fill="none" stroke-width="1.5"/>
    <rect x="14" y="10" width="4" height="3" rx="2" fill="none" stroke-width="1.5"/>
    
    <!-- 6 (clear spiral design) -->
    <rect x="24" y="3" width="8" height="12" rx="4" fill="none" stroke-width="2"/>
    <rect x="26" y="9" width="4" height="4" rx="2" fill="none" stroke-width="1.5"/>
    <path d="M26,6 L30,6" stroke-width="2"/>
    
    <!-- Space -->
    
    <!-- 1 (clear vertical line with base) -->
    <rect x="38" y="3" width="2.5" height="12" rx="0.5"/>
    <path d="M36,5 L38,3" stroke-width="2" stroke-linecap="round"/>
    <rect x="36" y="13.5" width="6.5" height="1.5" rx="0.3"/>
    
    <!-- 5 (clear F-shape) -->
    <rect x="48" y="3" width="8" height="2" rx="0.5"/>
    <rect x="48" y="3" width="2" height="6" rx="0.5"/>
    <rect x="48" y="7" width="6" height="2" rx="0.5"/>
    <rect x="54" y="7" width="2" height="8" rx="1"/>
    <rect x="48" y="13" width="8" height="2" rx="1"/>
    
    <!-- 0 (perfect oval) -->
    <ellipse cx="66" cy="9" rx="4" ry="6" fill="none" stroke-width="2.5"/>
    
    <!-- 1 (clear vertical line with base) -->
    <rect x="76" y="3" width="2.5" height="12" rx="0.5"/>
    <path d="M74,5 L76,3" stroke-width="2" stroke-linecap="round"/>
    <rect x="74" y="13.5" width="6.5" height="1.5" rx="0.3"/>
    
    <!-- 3 (distinctive right curves) -->
    <path d="M86,3 L94,3 Q96,3 96,5 Q96,6.5 94,7.5 L92,7.5" stroke-width="2" fill="none" stroke-linecap="round"/>
    <path d="M92,7.5 Q96,8.5 96,10.5 Q96,13 94,13 L86,13" stroke-width="2" fill="none" stroke-linecap="round"/>
    <circle cx="86" cy="8" r="0.8" fill="#1a1a1a"/>
    
    <!-- 7 (clear angle) -->
    <rect x="102" y="3" width="8" height="2" rx="0.5"/>
    <path d="M106,5 L104,15" stroke-width="2.5" stroke-linecap="round"/>
    
    <!-- 0 (perfect oval) -->
    <ellipse cx="118" cy="9" rx="4" ry="6" fill="none" stroke-width="2.5"/>
    
    <!-- 2 (clear Z-shape) -->
    <path d="M128,5 Q130,3 132,5 Q130,7 128,9 L132,13 L128,15 L132,15" stroke-width="2" fill="none" stroke-linecap="round"/>
    <rect x="128" y="3" width="6" height="2" rx="1"/>
    
    <!-- 3 (distinctive right curves) -->
    <path d="M138,3 L146,3 Q148,3 148,5 Q148,6.5 146,7.5 L144,7.5" stroke-width="2" fill="none" stroke-linecap="round"/>
    <path d="M144,7.5 Q148,8.5 148,10.5 Q148,13 146,13 L138,13" stroke-width="2" fill="none" stroke-linecap="round"/>
    <circle cx="138" cy="8" r="0.8" fill="#1a1a1a"/>
    
    <!-- 7 (clear angle) -->
    <rect x="154" y="3" width="8" height="2" rx="0.5"/>
    <path d="M158,5 L156,15" stroke-width="2.5" stroke-linecap="round"/>
    
    <!-- 8 (distinctive two circles) -->
    <rect x="168" y="3" width="8" height="12" rx="4" fill="none" stroke-width="2"/>
    <rect x="170" y="5" width="4" height="3" rx="2" fill="none" stroke-width="1.5"/>
    <rect x="170" y="10" width="4" height="3" rx="2" fill="none" stroke-width="1.5"/>
  </g>
</svg>