<?xml version="1.0" encoding="UTF-8"?>
<svg width="160" height="35" viewBox="0 0 160 35" xmlns="http://www.w3.org/2000/svg">
  <defs>
    <linearGradient id="bgGradient" x1="0%" y1="0%" x2="100%" y2="100%">
      <stop offset="0%" style="stop-color:#f8f9fa;stop-opacity:1" />
      <stop offset="100%" style="stop-color:#e9ecef;stop-opacity:1" />
    </linearGradient>
    <filter id="shadow" x="-20%" y="-20%" width="140%" height="140%">
      <feDropShadow dx="2" dy="2" stdDeviation="2" flood-color="#000" flood-opacity="0.1"/>
    </filter>
  </defs>
  
  <!-- Background rounded rectangle -->
  <rect x="2" y="2" width="156" height="31" rx="8" ry="8" 
        fill="url(#bgGradient)" stroke="#0056b3" stroke-width="2" filter="url(#shadow)"/>
  
  <!-- Phone number text as paths for true vector graphics -->
  <g fill="#333" font-family="Courier New, monospace" font-size="14" font-weight="bold">
    <!-- + symbol -->
    <rect x="15" y="14" width="2" height="8" rx="1"/>
    <rect x="12" y="17" width="8" height="2" rx="1"/>
    
    <!-- 8 -->
    <circle cx="28" cy="18" r="4" fill="none" stroke="#333" stroke-width="2"/>
    <circle cx="28" cy="18" r="2" fill="none" stroke="#333" stroke-width="1"/>
    
    <!-- 6 -->
    <path d="M38,14 Q42,14 42,18 Q42,22 38,22 Q34,22 34,18 L34,14 Q34,10 38,10 Q40,10 40,12" 
          fill="none" stroke="#333" stroke-width="2" stroke-linecap="round"/>
    
    <!-- Space -->
    
    <!-- 1 -->
    <rect x="52" y="10" width="2" height="12" rx="1"/>
    <path d="M50,12 L52,10" stroke="#333" stroke-width="2" stroke-linecap="round"/>
    
    <!-- 5 -->
    <path d="M58,10 L64,10 M58,10 L58,16 L62,16 Q64,16 64,18 Q64,20 62,20 L58,20" 
          fill="none" stroke="#333" stroke-width="2" stroke-linecap="round"/>
    
    <!-- 0 -->
    <ellipse cx="72" cy="16" rx="4" ry="6" fill="none" stroke="#333" stroke-width="2"/>
    
    <!-- 1 -->
    <rect x="82" y="10" width="2" height="12" rx="1"/>
    <path d="M80,12 L82,10" stroke="#333" stroke-width="2" stroke-linecap="round"/>
    
    <!-- 3 -->
    <path d="M88,10 Q92,10 92,14 Q90,16 92,16 Q92,20 88,20 Q86,20 86,18" 
          fill="none" stroke="#333" stroke-width="2" stroke-linecap="round"/>
    
    <!-- 7 -->
    <path d="M98,10 L104,10 L100,22" fill="none" stroke="#333" stroke-width="2" stroke-linecap="round"/>
    
    <!-- 0 -->
    <ellipse cx="112" cy="16" rx="4" ry="6" fill="none" stroke="#333" stroke-width="2"/>
    
    <!-- 2 -->
    <path d="M120,12 Q122,10 124,12 Q124,14 120,18 L124,22 L120,22" 
          fill="none" stroke="#333" stroke-width="2" stroke-linecap="round"/>
    
    <!-- 3 -->
    <path d="M128,10 Q132,10 132,14 Q130,16 132,16 Q132,20 128,20 Q126,20 126,18" 
          fill="none" stroke="#333" stroke-width="2" stroke-linecap="round"/>
    
    <!-- 7 -->
    <path d="M136,10 L142,10 L138,22" fill="none" stroke="#333" stroke-width="2" stroke-linecap="round"/>
    
    <!-- 8 -->
    <circle cx="148" cy="16" r="3" fill="none" stroke="#333" stroke-width="1.5"/>
    <circle cx="148" cy="14" r="2" fill="none" stroke="#333" stroke-width="1"/>
    <circle cx="148" cy="18" r="2" fill="none" stroke="#333" stroke-width="1"/>
  </g>
</svg>