<svg width="64" height="64" viewBox="0 0 64 64" xmlns="http://www.w3.org/2000/svg">
  <!-- Shield background -->
  <path d="M32 4 L48 12 L48 28 C48 40 32 56 32 56 C32 56 16 40 16 28 L16 12 Z" fill="#10b981" stroke="#059669" stroke-width="2"/>
  
  <!-- Checkmark -->
  <g stroke="#ffffff" stroke-width="3" fill="none">
    <path d="M24 32 L28 36 L40 24"/>
  </g>
  
  <!-- Stars for authenticity -->
  <g fill="#fbbf24">
    <polygon points="32,16 33,19 36,19 34,21 35,24 32,22 29,24 30,21 28,19 31,19"/>
    <polygon points="42,20 42.5,21.5 44,21.5 43,22.5 43.5,24 42,23 40.5,24 41,22.5 40,21.5 41.5,21.5"/>
    <polygon points="22,20 22.5,21.5 24,21.5 23,22.5 23.5,24 22,23 20.5,24 21,22.5 20,21.5 21.5,21.5"/>
  </g>
  
  <!-- "AUTHORIZED" text -->
  <text x="32" y="46" font-family="Arial, sans-serif" font-size="8" font-weight="bold" text-anchor="middle" fill="#ffffff">
    AUTHORIZED
  </text>
</svg>