<svg width="64" height="64" viewBox="0 0 64 64" xmlns="http://www.w3.org/2000/svg">
  <!-- Engineer head -->
  <circle cx="32" cy="22" r="10" fill="#fbbf24" stroke="#f59e0b" stroke-width="2"/>
  
  <!-- Hard hat -->
  <path d="M22 18 C22 12 26 8 32 8 C38 8 42 12 42 18 L40 16 L24 16 Z" fill="#ef4444" stroke="#dc2626" stroke-width="2"/>
  
  <!-- Face features -->
  <circle cx="28" cy="20" r="1" fill="#374151"/>
  <circle cx="36" cy="20" r="1" fill="#374151"/>
  <path d="M30 24 Q32 26 34 24" stroke="#374151" stroke-width="2" fill="none"/>
  
  <!-- Body/shirt -->
  <rect x="24" y="32" width="16" height="20" rx="2" fill="#3b82f6" stroke="#2563eb" stroke-width="2"/>
  
  <!-- Arms -->
  <rect x="16" y="36" width="8" height="12" rx="4" fill="#fbbf24" stroke="#f59e0b" stroke-width="2"/>
  <rect x="40" y="36" width="8" height="12" rx="4" fill="#fbbf24" stroke="#f59e0b" stroke-width="2"/>
  
  <!-- Tools in hands -->
  <rect x="14" y="46" width="12" height="2" fill="#6b7280"/>
  <rect x="38" y="46" width="12" height="2" fill="#6b7280"/>
  <circle cx="20" cy="47" r="2" fill="#ef4444"/>
  <circle cx="44" cy="47" r="2" fill="#10b981"/>
  
  <!-- Legs -->
  <rect x="26" y="52" width="6" height="8" fill="#1f2937"/>
  <rect x="32" y="52" width="6" height="8" fill="#1f2937"/>
  
  <!-- Support/service indicator -->
  <g fill="#10b981">
    <circle cx="50" cy="14" r="6"/>
    <path d="M47 14 L49 16 L53 12" stroke="#ffffff" stroke-width="2" fill="none"/>
  </g>
</svg>