<svg width="64" height="64" viewBox="0 0 64 64" xmlns="http://www.w3.org/2000/svg">
  <!-- Warehouse structure -->
  <rect x="8" y="20" width="48" height="36" fill="#6b7280" stroke="#4b5563" stroke-width="2"/>
  <polygon points="8,20 32,8 56,20" fill="#374151" stroke="#4b5563" stroke-width="2"/>
  
  <!-- Shelves -->
  <g fill="#d1d5db" stroke="#9ca3af" stroke-width="1">
    <rect x="12" y="24" width="18" height="2"/>
    <rect x="12" y="32" width="18" height="2"/>
    <rect x="12" y="40" width="18" height="2"/>
    <rect x="34" y="24" width="18" height="2"/>
    <rect x="34" y="32" width="18" height="2"/>
    <rect x="34" y="40" width="18" height="2"/>
  </g>
  
  <!-- Boxes on shelves -->
  <g fill="#3b82f6">
    <rect x="13" y="20" width="4" height="4"/>
    <rect x="19" y="20" width="4" height="4"/>
    <rect x="25" y="20" width="4" height="4"/>
    <rect x="35" y="20" width="4" height="4"/>
    <rect x="41" y="20" width="4" height="4"/>
    <rect x="47" y="20" width="4" height="4"/>
    
    <rect x="13" y="28" width="4" height="4"/>
    <rect x="19" y="28" width="4" height="4"/>
    <rect x="35" y="28" width="4" height="4"/>
    <rect x="47" y="28" width="4" height="4"/>
    
    <rect x="13" y="36" width="4" height="4"/>
    <rect x="25" y="36" width="4" height="4"/>
    <rect x="35" y="36" width="4" height="4"/>
    <rect x="41" y="36" width="4" height="4"/>
  </g>
  
  <!-- Door -->
  <rect x="28" y="44" width="8" height="12" fill="#8b5cf6" stroke="#7c3aed" stroke-width="2"/>
  <circle cx="34" cy="50" r="1" fill="#fbbf24"/>
</svg>