<svg width="64" height="64" viewBox="0 0 64 64" xmlns="http://www.w3.org/2000/svg">
  <!-- Film capacitor body (rectangular) -->
  <rect x="16" y="20" width="32" height="16" rx="2" fill="#3b82f6" stroke="#2563eb" stroke-width="2"/>
  
  <!-- Film layers visualization -->
  <g stroke="#60a5fa" stroke-width="1" fill="none" opacity="0.7">
    <line x1="20" y1="24" x2="44" y2="24"/>
    <line x1="20" y1="26" x2="44" y2="26"/>
    <line x1="20" y1="28" x2="44" y2="28"/>
    <line x1="20" y1="30" x2="44" y2="30"/>
    <line x1="20" y1="32" x2="44" y2="32"/>
  </g>
  
  <!-- Terminal leads -->
  <rect x="12" y="26" width="8" height="4" fill="#6b7280"/>
  <rect x="44" y="26" width="8" height="4" fill="#6b7280"/>
  
  <!-- Lead wires -->
  <rect x="8" y="27" width="8" height="2" fill="#374151"/>
  <rect x="48" y="27" width="8" height="2" fill="#374151"/>
  
  <!-- Polarity indicators (film caps are non-polarized) -->
  <text x="32" y="30" font-family="Arial, sans-serif" font-size="6" text-anchor="middle" fill="#ffffff">DC LINK</text>
  
  <!-- Capacitor label -->
  <rect x="18" y="38" width="28" height="12" fill="#ffffff"/>
  <text x="32" y="43" font-family="Arial, sans-serif" font-size="6" text-anchor="middle" fill="#374151">JIANGHAI CBB</text>
  <text x="32" y="48" font-family="Arial, sans-serif" font-size="8" font-weight="bold" text-anchor="middle" fill="#374151">10μF 1000V</text>
  
  <!-- Self-healing indicator -->
  <circle cx="46" cy="16" r="6" fill="#10b981"/>
  <path d="M43 16 L45 18 L49 14" stroke="#ffffff" stroke-width="1.5" fill="none"/>
</svg>